<svg id="Layer_1" data-name="Layer 1" xmlns="http://www.w3.org/2000/svg" viewBox="0 0 100 31.21"><defs><style>.cls-1{fill:#eb5c63;}</style></defs><path class="cls-1" d="M52.7,12.24a2,2,0,1,1-2-2A2,2,0,0,1,52.7,12.24Zm-8.37,4.09v.5a3.91,3.91,0,0,0-3-1.25,6,6,0,0,0-6.06,6.19A6,6,0,0,0,41.3,28a3.8,3.8,0,0,0,3-1.28v.53a.43.43,0,0,0,.44.44H47.3V15.89H44.77A.45.45,0,0,0,44.33,16.33Zm0,7.53a3.09,3.09,0,0,1-2.53,1.28,3.27,3.27,0,0,1-3.53-3.37,3.27,3.27,0,0,1,3.53-3.38,3.22,3.22,0,0,1,2.53,1.28Zm4.84-8h3V27.64h-3ZM94,15.58a3.91,3.91,0,0,0-3,1.25V10.24h-3v17.4h2.53a.45.45,0,0,0,.44-.44v-.53h0a3.87,3.87,0,0,0,3,1.28A6,6,0,0,0,100,21.77,6,6,0,0,0,94,15.58Zm-.5,9.53a3.09,3.09,0,0,1-2.53-1.28V19.64a3.41,3.41,0,0,1,2.53-1.28A3.27,3.27,0,0,1,97,21.73,3.27,3.27,0,0,1,93.47,25.11Zm-7.09-4.44v7h-3V21c0-1.94-.62-2.72-2.31-2.72a3.39,3.39,0,0,0-2.44,1.15v8.19h-3V15.89H78a.44.44,0,0,1,.43.44v.5a4.31,4.31,0,0,1,3.19-1.25,4.85,4.85,0,0,1,3.28,1.12C86,17.58,86.38,18.7,86.38,20.67Zm-18-5.09a3.91,3.91,0,0,0-3,1.25V10.24h-3v17.4h2.53a.44.44,0,0,0,.43-.44v-.53h0a3.87,3.87,0,0,0,3,1.28,6,6,0,0,0,6.06-6.18A6,6,0,0,0,68.35,15.58Zm-.5,9.53a3.09,3.09,0,0,1-2.53-1.28V19.64a3.41,3.41,0,0,1,2.53-1.28,3.27,3.27,0,0,1,3.53,3.37A3.27,3.27,0,0,1,67.85,25.11Zm-8.12-9.53a4.71,4.71,0,0,1,1.38.16v2.78s-2.5-.85-4.06.93v8.22h-3V15.89h2.53a.44.44,0,0,1,.43.44v.5A4.12,4.12,0,0,1,59.73,15.58Zm-31.14,11c-.16-.38-.32-.79-.47-1.13-.25-.56-.5-1.09-.72-1.59l0,0c-2.16-4.69-4.47-9.44-6.91-14.12l-.09-.19c-.25-.47-.5-1-.75-1.47A9.15,9.15,0,0,0,18.5,6.33a5,5,0,0,0-4-1.93,5.23,5.23,0,0,0-4,1.87A10.49,10.49,0,0,0,9.41,8c-.25.5-.5,1-.75,1.47l-.1.18c-2.4,4.69-4.75,9.44-6.9,14.12l0,.07c-.22.5-.47,1-.72,1.59-.16.34-.31.72-.47,1.12a6.94,6.94,0,0,0-.37,3.38A6.61,6.61,0,0,0,4.13,35.1a6.28,6.28,0,0,0,2.53.5,7.36,7.36,0,0,0,.81-.06,8.21,8.21,0,0,0,3.12-1.06,16,16,0,0,0,3.88-3.25,16.34,16.34,0,0,0,3.87,3.25,8.21,8.21,0,0,0,3.12,1.06,7.54,7.54,0,0,0,.82.06,6.21,6.21,0,0,0,2.53-.5,6.64,6.64,0,0,0,4.06-5.18A5.94,5.94,0,0,0,28.59,26.58ZM14.5,28.2a15.41,15.41,0,0,1-3.16-5.81,5.26,5.26,0,0,1-.09-1.91,3,3,0,0,1,.5-1.31A3.31,3.31,0,0,1,14.5,17.8a3.22,3.22,0,0,1,2.75,1.37,3.14,3.14,0,0,1,.5,1.31,5,5,0,0,1-.1,1.91A15.89,15.89,0,0,1,14.5,28.2ZM27,29.67a4.68,4.68,0,0,1-5.21,4,6.21,6.21,0,0,1-2.38-.82,14.46,14.46,0,0,1-3.56-3,17.66,17.66,0,0,0,3.78-6.9,7.92,7.92,0,0,0,.16-2.66,5.07,5.07,0,0,0-.85-2.12,5.25,5.25,0,0,0-4.4-2.22,5.37,5.37,0,0,0-4.41,2.22,5.06,5.06,0,0,0-.84,2.12,6.42,6.42,0,0,0,.16,2.66,18,18,0,0,0,3.78,6.93,14.23,14.23,0,0,1-3.57,3,6.37,6.37,0,0,1-2.37.81,4.91,4.91,0,0,1-2.37-.32A4.65,4.65,0,0,1,2,29.7a5.27,5.27,0,0,1,.28-2.44c.1-.31.25-.62.41-1s.47-1,.72-1.56l0-.06c2.16-4.66,4.47-9.4,6.87-14l.1-.18c.25-.47.5-1,.75-1.44a7.17,7.17,0,0,1,.87-1.38,3.29,3.29,0,0,1,5,0A7.17,7.17,0,0,1,17.93,9c.25.47.5,1,.75,1.44l.1.18c2.37,4.66,4.68,9.41,6.84,14.06v0c.25.5.47,1.06.72,1.56s.31.69.4,1A5.24,5.24,0,0,1,27,29.67Z" transform="translate(0 -4.4)"/></svg>