<svg xmlns="http://www.w3.org/2000/svg" viewBox="0 0 99.97 31.2"><defs><style>.cls-1{fill:#fff;}</style></defs><g id="Layer_1" data-name="Layer 1"><path class="cls-1" d="M52.7,7.84a2,2,0,1,1-2-2A2,2,0,0,1,52.7,7.84Zm-8.37,4.09v.5a3.92,3.92,0,0,0-3-1.25,6,6,0,0,0-6.06,5.94v.25A6,6,0,0,0,41,23.6h.26a3.78,3.78,0,0,0,3-1.28v.53a.43.43,0,0,0,.42.44H47.3V11.49H44.77A.46.46,0,0,0,44.33,11.93Zm0,7.53a3.09,3.09,0,0,1-2.53,1.28,3.27,3.27,0,0,1-3.52-3c0-.12,0-.25,0-.37A3.27,3.27,0,0,1,41.42,14h.38a3.22,3.22,0,0,1,2.53,1.28Zm4.84-8h3V23.24h-3ZM94,11.18a3.92,3.92,0,0,0-3,1.25V5.84H88v17.4h2.53A.46.46,0,0,0,91,22.8v-.53h0a3.85,3.85,0,0,0,3,1.28,6,6,0,0,0,6-6v-.21a6,6,0,0,0-5.81-6.19Zm-.5,9.53A3.09,3.09,0,0,1,91,19.43V15.24A3.43,3.43,0,0,1,93.5,14,3.26,3.26,0,0,1,97,17c0,.11,0,.23,0,.34a3.27,3.27,0,0,1-3.15,3.39H93.5Zm-7.09-4.44v7h-3V16.6c0-1.94-.62-2.72-2.31-2.72A3.41,3.41,0,0,0,78.66,15v8.19h-3V11.49H78a.44.44,0,0,1,.43.44v.5a4.31,4.31,0,0,1,3.19-1.25A4.9,4.9,0,0,1,84.9,12.3c1.1.88,1.48,2,1.48,4Zm-18-5.09a3.92,3.92,0,0,0-3,1.25V5.84h-3v17.4h2.53a.44.44,0,0,0,.43-.44v-.53h0a3.85,3.85,0,0,0,3,1.28,6,6,0,0,0,6.06-5.94v-.24a6,6,0,0,0-5.81-6.19h-.21Zm-.5,9.53a3.09,3.09,0,0,1-2.53-1.28V15.24A3.43,3.43,0,0,1,67.91,14a3.27,3.27,0,0,1,3.52,3c0,.12,0,.25,0,.37a3.27,3.27,0,0,1-3.14,3.39,3.38,3.38,0,0,1-.45,0Zm-8.12-9.53a4.58,4.58,0,0,1,1.38.16v2.78s-2.5-.85-4.06.93v8.22h-3V11.49h2.53a.44.44,0,0,1,.43.44v.5a4.13,4.13,0,0,1,2.66-1.25Zm-31.14,11c-.16-.38-.32-.79-.47-1.13-.25-.56-.5-1.09-.72-1.59h0C25.3,14.77,23,10,20.55,5.34l-.09-.19c-.25-.47-.5-1-.75-1.47A8.8,8.8,0,0,0,18.5,1.93,5,5,0,0,0,14.5,0a5.24,5.24,0,0,0-4,1.87A10.71,10.71,0,0,0,9.41,3.6c-.25.5-.5,1-.75,1.47l-.1.18c-2.4,4.69-4.75,9.44-6.9,14.12v.07c-.22.5-.47,1-.72,1.59-.16.34-.31.72-.47,1.12A7,7,0,0,0,.1,25.53a6.62,6.62,0,0,0,4,5.17,6.28,6.28,0,0,0,2.53.5q.4,0,.81-.06a8.26,8.26,0,0,0,3.12-1.06,15.94,15.94,0,0,0,3.88-3.25,16.31,16.31,0,0,0,3.87,3.25,8.26,8.26,0,0,0,3.12,1.06c.27,0,.55.05.82.06a6.28,6.28,0,0,0,2.53-.5,6.65,6.65,0,0,0,4.06-5.18,6,6,0,0,0-.28-3.34ZM14.5,23.8A15.48,15.48,0,0,1,11.34,18a5.12,5.12,0,0,1-.09-1.91,3,3,0,0,1,.5-1.31A3.32,3.32,0,0,1,14.5,13.4a3.11,3.11,0,0,1,3.25,2.68,4.91,4.91,0,0,1-.1,1.91A15.74,15.74,0,0,1,14.5,23.8ZM27,25.27a4.68,4.68,0,0,1-5.21,4,6.31,6.31,0,0,1-2.38-.82,14.42,14.42,0,0,1-3.56-3,17.82,17.82,0,0,0,3.78-6.9,7.93,7.93,0,0,0,.16-2.66,5.1,5.1,0,0,0-.85-2.12,5.24,5.24,0,0,0-4.4-2.22,5.38,5.38,0,0,0-4.41,2.22,5.08,5.08,0,0,0-.84,2.12,6.46,6.46,0,0,0,.16,2.66,17.94,17.94,0,0,0,3.78,6.93,14.28,14.28,0,0,1-3.57,3,6.42,6.42,0,0,1-2.37.81A4.92,4.92,0,0,1,4.92,29,4.66,4.66,0,0,1,2,25.3a5.33,5.33,0,0,1,.28-2.44c.1-.31.25-.62.41-1s.47-1,.72-1.56v-.06c2.16-4.66,4.47-9.4,6.87-14l.1-.18c.25-.47.5-1,.75-1.44A7.63,7.63,0,0,1,12,3.24a3.29,3.29,0,0,1,4.64-.36,3.06,3.06,0,0,1,.36.36,7.44,7.44,0,0,1,.93,1.36c.25.47.5,1,.75,1.44l.1.18c2.37,4.66,4.68,9.41,6.84,14.06h0c.25.5.47,1.06.72,1.56a4.84,4.84,0,0,1,.4,1A5.15,5.15,0,0,1,27,25.27Z" transform="translate(-0.03 0)"/></g></svg>