<svg xmlns="http://www.w3.org/2000/svg" viewBox="0 0 100.12 25.32"><defs><style>.cls-1{fill:#fff;}.cls-2{fill:#363738;}.cls-3{fill:#3f3f3f;}.cls-4{fill:#fcfcfc;}</style></defs><g id="Layer_1" data-name="Layer 1"><path class="cls-1" d="M69.16,2.89h-.48s-10.1.8-14,1.46S40.13,6.78,37.09,7.08,24.31,8.3,17.25,7a52.68,52.68,0,0,1-6.18-1.55A25.68,25.68,0,0,1,2.32,7.58,18,18,0,0,1,0,7.58,25.5,25.5,0,0,0,2.86,9.26a46.42,46.42,0,0,0,4.3,1.85,42.87,42.87,0,0,0,13,2.69c8.11.37,20.73-1.73,25.92-2.87,3.39-.75,9.61,7.54,16,8.74a6.2,6.2,0,0,1,4.16,3.39C70.76,19,81,11.06,94.35,8.24A47.66,47.66,0,0,0,69.2,2.9" transform="translate(0 0)"/><path class="cls-1" d="M45.92,25.19H36.05L38.59,19H36.9l-2.66,6.16H16.91a6.38,6.38,0,0,1-4.49-1.92,6.57,6.57,0,0,1-2-4.68,7,7,0,0,1,.39-2.21,10.56,10.56,0,0,1,5.37-6.08,10.23,10.23,0,0,1,3.68-1H20l49.93.12v1.46l.59-.62.77-.83H81v15.9H70.64V23L68,25.25H60V23.4l-2,1.83" transform="translate(0 0)"/><path class="cls-1" d="M100,7.25h0S89.48-1.13,71,.13l-.47.06s-10.09,1-14,1.75S42,4.63,39,5s-12.76,1.49-19.84.36a50.47,50.47,0,0,1-5.43-1.17l-1.34.66c1.42.4,3.06.8,4.92,1.14,7.06,1.28,16.8.36,19.84.06s13.63-2,17.56-2.7,14-1.45,14-1.45l.47,0C82.53,1.23,91.63,5.52,95.67,8c1.45-.26,2.94-.46,4.45-.58L100,7.25" transform="translate(0 0)"/><path class="cls-2" d="M71.63,10.26l-.51.54L69,13.12V10.25l-49-.12h0a9.41,9.41,0,0,0-3.33.93,9.62,9.62,0,0,0-4.9,5.57,5.59,5.59,0,0,0-.33,1.9,5.69,5.69,0,0,0,1.69,4A5.54,5.54,0,0,0,17,24.19H33.71l2.59-6.11H40l-2.54,6.17h9.93l2.4-6.18h4L48,24.31h9.64l3.26-3v3h6.78l3.89-3.25v3.27H80v-14" transform="translate(0 0)"/><polyline class="cls-3" points="51.8 18.93 50.47 18.93 49.51 21.37"/><path class="cls-1" d="M20,11.82a7.9,7.9,0,0,0-6.71,5.38,4,4,0,0,0,2.37,5.14,4.08,4.08,0,0,0,1.25.24H32.53l1.95-4.52H20.16s-1.41.1-.95-.86a1.25,1.25,0,0,1,1.31-.79H35.21l1.95-4.53" transform="translate(0 0)"/><path class="cls-1" d="M39,11.87l-2,4.52h5.43l-2.5,6.19h6.25l2.41-6.18h6.76l4.26-4.51" transform="translate(0 0)"/><polyline class="cls-4" points="72.36 11.95 67.25 17.41 67.27 11.93 61.91 11.92 57.68 16.43 57.7 16.43 51.89 22.62 56.97 22.62 62.59 17.46 62.58 22.63 67.06 22.64 73.26 17.46 73.25 22.66 78.29 22.66 78.33 11.97"/></g></svg>