<?xml version="1.0" encoding="utf-8"?>
<!-- Generator: Adobe Illustrator 25.2.0, SVG Export Plug-In . SVG Version: 6.00 Build 0)  -->
<svg version="1.1" id="Layer_1" xmlns="http://www.w3.org/2000/svg" xmlns:xlink="http://www.w3.org/1999/xlink" x="0px" y="0px"
	 viewBox="0 0 320.1 56.1" style="enable-background:new 0 0 320.1 56.1;" xml:space="preserve">
<style type="text/css">
	.st0{fill:none;}
	.st1{fill:#FFFFFF;}
</style>
<polyline class="st0" points="0,56.1 0,0 320.1,0 320.1,56.1 "/>
<path class="st1" d="M97.7,56.1V37.2L124.5,0h14.8L97.7,56.1"/>
<path class="st1" d="M97.7,0V35l14.6-19.7L112.1,0L97.7,0z"/>
<path class="st1" d="M140.3,55.6l-17.6-30.7l-9,11.9l10.8,19"/>
<path class="st1" d="M30.9,15.8c1.5,0,2.9,0.3,4.2,0.9c1.2,0.6,2.2,1.5,3,2.5c0.8,1.1,1.4,2.4,1.7,3.7c0.4,1.5,0.6,3.1,0.6,4.6v17.8
	h-7V27.7c0-1.3-0.6-2.5-1.5-3.4c-1.9-1.9-5-1.9-6.9,0c0,0,0,0,0,0c-0.9,0.9-1.5,2.2-1.5,3.5v17.8h-6.9V27.7c0-1.3-0.5-2.5-1.5-3.4
	c-0.4-0.5-1-0.9-1.6-1.1c-0.6-0.2-1.2-0.3-1.9-0.3c-1.3,0-2.6,0.5-3.5,1.4c-0.9,0.9-1.5,2.2-1.5,3.5v17.8H0V16.7h6.9v2.6
	c1.1-0.9,2.3-1.7,3.5-2.4c1.1-0.6,2.4-1,3.8-1c1.5-0.1,3,0.3,4.3,1c1.2,0.8,2.2,1.7,3,2.9c1.1-1.2,2.5-2.1,4-2.8
	C27.2,16.2,29,15.8,30.9,15.8z"/>
<path class="st1" d="M73.7,16.6v28.9h-6.9V31c0-4.6-3.7-8.3-8.2-8.3c0,0-0.1,0-0.1,0c-1.1,0-2.2,0.2-3.2,0.7c-1,0.4-1.9,1.1-2.7,1.8
	c-3.2,3.2-3.2,8.5,0,11.7c0.8,0.8,1.7,1.4,2.7,1.8c1,0.4,2.1,0.6,3.2,0.6c1.1,0,2.1-0.2,3.1-0.6l2.5,6.2c-1.9,0.9-4,1.3-6.1,1.3
	c-2,0-4-0.4-5.8-1.2c-1.8-0.8-3.3-1.9-4.6-3.2c-1.3-1.4-2.3-3-3.1-4.8c-0.7-1.9-1.1-3.9-1.1-5.9c0-2,0.4-4,1.1-5.9
	c0.7-1.8,1.7-3.4,3.1-4.8c1.3-1.4,2.9-2.5,4.6-3.2c1.8-0.8,3.8-1.2,5.8-1.2c1.7,0,3.4,0.3,5,0.9c1.4,0.5,2.7,1.3,3.9,2.2v-2.3
	L73.7,16.6L73.7,16.6z"/>
<path class="st1" d="M88.4,16.7c1.5-0.6,3-0.9,4.6-0.9v6.9c-2.2,0-4.3,0.8-5.9,2.4c-1.6,1.6-2.4,3.7-2.4,5.9v14.5h-6.9V16.6h6.9v2.3
	C85.8,17.9,87.1,17.2,88.4,16.7z"/>
<path class="st1" d="M150.3,15.8c2,0,4.1,0.4,5.9,1.2c1.8,0.7,3.4,1.8,4.8,3.2c1.4,1.4,2.5,3,3.2,4.8c0.8,1.9,1.2,3.9,1.2,5.9
	c0,6.1-3.6,11.6-9.3,14c-3.8,1.6-8.1,1.6-11.9,0c-1.8-0.7-3.5-1.8-4.8-3.2c-2.8-2.8-4.4-6.7-4.4-10.7c0-2,0.4-4.1,1.2-5.9
	c0.8-1.8,1.9-3.5,3.3-4.9c1.4-1.4,3-2.5,4.8-3.2C146.2,16.2,148.2,15.8,150.3,15.8z M150.3,22.8c-4.6,0-8.3,3.7-8.3,8.2
	c0,2.2,0.9,4.3,2.4,5.9c0.8,0.8,1.7,1.4,2.7,1.8c1,0.4,2.1,0.6,3.2,0.6c1.1,0,2.2-0.2,3.2-0.6c1-0.4,1.9-1,2.7-1.8
	c1.6-1.5,2.4-3.6,2.4-5.8c0-2.2-0.8-4.3-2.4-5.9C154.6,23.6,152.5,22.7,150.3,22.8z"/>
<path class="st1" d="M195.4,16.7v28.8h-6.9v-2.2c-1,0.9-2.2,1.7-3.5,2.2c-1.4,0.6-2.9,0.9-4.4,0.8c-1.8,0-3.5-0.3-5.1-1
	c-1.5-0.7-2.9-1.7-4-2.9c-1.1-1.3-2-2.7-2.5-4.3c-0.6-1.7-0.9-3.5-0.9-5.3v-16h7v16c0,1.8,0.7,3.5,2,4.7c1.2,1.3,3,2,4.7,2
	c1.8,0,3.5-0.7,4.8-2c1.3-1.2,2-3,1.9-4.7v-16L195.4,16.7z"/>
<path class="st1" d="M215,15.9c2,0,4,0.4,5.9,1.2c1.8,0.8,3.3,1.9,4.6,3.2c1.3,1.4,2.4,3,3.1,4.8c0.7,1.9,1.1,3.9,1.1,5.9
	c0,2-0.4,4-1.1,5.9c-0.7,1.8-1.8,3.4-3.1,4.8c-1.3,1.4-2.9,2.5-4.6,3.2c-1.8,0.8-3.8,1.2-5.9,1.2c-2.1,0-4.2-0.4-6.2-1.3l2.5-6.2
	c1,0.4,2.1,0.6,3.1,0.6c4.6,0,8.3-3.7,8.3-8.2c0,0,0,0,0,0c0-4.6-3.7-8.3-8.2-8.3c0,0-0.1,0-0.1,0c-2.2,0-4.3,0.9-5.9,2.4
	c-1.6,1.5-2.5,3.7-2.4,5.9v14.4h-6.9V5.1h6.9V19c1.2-0.9,2.5-1.7,3.9-2.2C211.6,16.2,213.3,15.9,215,15.9z"/>
<path class="st1" d="M121.8,14.6l-0.6-0.5l2.4-3.4l0.7,0.5L121.8,14.6z"/>
<path class="st1" d="M105.9,36.1l-0.6-0.5l2.4-3.4l0.7,0.5L105.9,36.1z"/>
<path class="st1" d="M114,25l-0.6-0.5l2.4-3.4l0.7,0.4L114,25z"/>
<path class="st1" d="M129.8,3.8l-0.6-0.5l2.4-3.3l0.9-0.1L129.8,3.8z"/>
<path class="st1" d="M97.8,46.2v1.2l2.9-4l-0.6-0.4"/>
<path class="st1" d="M320.1,16.6v28.9h-6.9V31c0-4.6-3.7-8.3-8.2-8.3c0,0-0.1,0-0.1,0c-1.1,0-2.2,0.2-3.2,0.7
	c-1,0.4-1.9,1.1-2.7,1.8c-3.2,3.2-3.2,8.5,0,11.7c0.8,0.8,1.7,1.4,2.7,1.8c1,0.4,2.1,0.6,3.2,0.6c1.1,0,2.1-0.2,3.1-0.6l2.5,6.2
	c-1.9,0.9-4,1.3-6.2,1.3c-2,0-4-0.4-5.9-1.2c-1.8-0.8-3.3-1.9-4.6-3.2c-1.3-1.4-2.3-3-3.1-4.8c-0.7-1.9-1.1-3.9-1.1-5.9
	c0-2,0.4-4,1.1-5.9c0.7-1.8,1.7-3.4,3.1-4.8c1.3-1.4,2.9-2.5,4.6-3.2c1.8-0.8,3.8-1.2,5.9-1.2c1.7,0,3.4,0.3,5,0.9
	c1.4,0.5,2.7,1.3,3.9,2.2v-2.3L320.1,16.6L320.1,16.6z"/>
<path class="st1" d="M234.2,45.5v-6.9h6.9v6.9H234.2z"/>
<path class="st1" d="M277.2,15.8c1.5,0,2.9,0.3,4.2,0.9c1.2,0.6,2.2,1.5,3,2.5c0.8,1.1,1.4,2.4,1.7,3.7c0.4,1.5,0.6,3.1,0.6,4.6
	v17.8h-6.9V27.7c0-1.3-0.5-2.5-1.5-3.4c-1.9-1.9-5-1.9-6.9,0c0,0,0,0,0,0c-0.9,0.9-1.5,2.1-1.5,3.4v17.8h-6.9V27.7
	c0-1.3-0.5-2.5-1.5-3.4c-0.4-0.5-1-0.9-1.6-1.1c-0.6-0.2-1.2-0.3-1.9-0.3c-2.7,0-5,2.2-5,4.9v17.8h-6.9V16.7h6.9v2.6
	c1.1-0.9,2.3-1.7,3.5-2.4c1.1-0.6,2.4-1,3.8-1c1.5-0.1,3,0.3,4.3,1c1.2,0.8,2.2,1.7,3,2.9C270.3,17.2,273.7,15.8,277.2,15.8
	L277.2,15.8z"/>
</svg>
