<svg id="Layer_1" data-name="Layer 1" xmlns="http://www.w3.org/2000/svg" viewBox="0 0 320.1 56.13"><defs><style>.cls-1{fill:none;}.cls-2{fill:#ff6900;}.cls-3{fill:#fff;}</style></defs><polyline class="cls-1" points="0 56.13 0 0 320.1 0 320.1 56.13"/><path class="cls-2" d="M97.7,77.88V59l26.81-37.24h14.83L97.7,77.88" transform="translate(0 -21.75)"/><path class="cls-2" d="M97.7,21.78V56.73L112.28,37l-.15-15.2Z" transform="translate(0 -21.75)"/><path class="cls-2" d="M140.33,77.38,122.75,46.67l-9,11.86,10.8,19" transform="translate(0 -21.75)"/><path class="cls-2" d="M30.9,37.6a9.2,9.2,0,0,1,4.24.93,8.29,8.29,0,0,1,3,2.54,11.91,11.91,0,0,1,1.73,3.74,18.43,18.43,0,0,1,.59,4.62V67.26H33.5V49.43A4.79,4.79,0,0,0,32,46a4.87,4.87,0,0,0-6.93,0,4.74,4.74,0,0,0-1.46,3.47V67.26H16.72V49.43A4.79,4.79,0,0,0,15.26,46a4,4,0,0,0-1.58-1.08,5.25,5.25,0,0,0-1.89-.34A4.68,4.68,0,0,0,8.27,46a4.74,4.74,0,0,0-1.46,3.47V67.29H0V38.41H6.93V41a17.71,17.71,0,0,1,3.53-2.39,8,8,0,0,1,3.75-1,7.81,7.81,0,0,1,4.27,1,10.59,10.59,0,0,1,3,2.88,12.7,12.7,0,0,1,4-2.78A12.39,12.39,0,0,1,30.9,37.6Z" transform="translate(0 -21.75)"/><path class="cls-2" d="M73.74,38.34V67.23H66.81V52.8a8.25,8.25,0,0,0-8.3-8.29,8,8,0,0,0-3.19.65A8.33,8.33,0,0,0,52.63,47a8.28,8.28,0,0,0,0,11.7,7.45,7.45,0,0,0,2.69,1.83,8.67,8.67,0,0,0,3.19.62,7.87,7.87,0,0,0,3.13-.59l2.47,6.16A13.43,13.43,0,0,1,58,68a14.72,14.72,0,0,1-5.85-1.17,13.85,13.85,0,0,1-4.64-3.25,16,16,0,0,1-3.07-4.83,15.72,15.72,0,0,1-1.08-5.89,16.52,16.52,0,0,1,1.08-5.94,15,15,0,0,1,3.07-4.83,13.71,13.71,0,0,1,4.64-3.25A14.73,14.73,0,0,1,58,37.66a13.31,13.31,0,0,1,5,.87,15.34,15.34,0,0,1,3.87,2.2V38.44h6.9Z" transform="translate(0 -21.75)"/><path class="cls-2" d="M88.38,38.41A11.62,11.62,0,0,1,93,37.54v6.93a8,8,0,0,0-5.88,2.42,8.29,8.29,0,0,0-2.42,5.88V67.26H77.8V38.34h6.93V40.6A13.47,13.47,0,0,1,88.38,38.41Z" transform="translate(0 -21.75)"/><path class="cls-2" d="M150.27,37.6a15.21,15.21,0,0,1,5.94,1.18A14.84,14.84,0,0,1,161,42a15,15,0,0,1,3.25,4.83,15.21,15.21,0,0,1,1.18,5.94,15.14,15.14,0,0,1-9.26,14,15.57,15.57,0,0,1-11.89,0,14.44,14.44,0,0,1-4.83-3.25,15,15,0,0,1-4.42-10.71,15.38,15.38,0,0,1,1.17-5.94A15,15,0,0,1,139.49,42a15.23,15.23,0,0,1,4.83-3.25A14.7,14.7,0,0,1,150.27,37.6Zm0,6.91a8.27,8.27,0,0,0-5.88,14.11,7.45,7.45,0,0,0,2.69,1.83,8.63,8.63,0,0,0,3.19.62,8.43,8.43,0,0,0,3.16-.62,8.53,8.53,0,0,0,2.72-1.83,7.94,7.94,0,0,0,2.41-5.82,8,8,0,0,0-2.41-5.88A8.23,8.23,0,0,0,150.27,44.51Z" transform="translate(0 -21.75)"/><path class="cls-2" d="M195.43,38.41V67.23H188.5V65A13.2,13.2,0,0,1,185,67.2a11.14,11.14,0,0,1-4.4.83,12.1,12.1,0,0,1-5.13-1,12,12,0,0,1-4-2.91,13.24,13.24,0,0,1-2.54-4.33,15.93,15.93,0,0,1-.89-5.3v-16H175v16a6.59,6.59,0,0,0,2,4.74,6.45,6.45,0,0,0,4.74,2,6.59,6.59,0,0,0,4.8-2,6.45,6.45,0,0,0,1.95-4.74v-16Z" transform="translate(0 -21.75)"/><path class="cls-2" d="M215,37.66a14.73,14.73,0,0,1,5.85,1.18,14.14,14.14,0,0,1,4.64,3.25,15.72,15.72,0,0,1,3.07,4.83,15.9,15.9,0,0,1,1.08,5.94,16.33,16.33,0,0,1-1.08,5.89,15.26,15.26,0,0,1-3.07,4.83,13.85,13.85,0,0,1-4.64,3.25A14.72,14.72,0,0,1,215,68a13.78,13.78,0,0,1-6.16-1.33l2.47-6.16a8.31,8.31,0,0,0,3.13.59,8.26,8.26,0,0,0,8.3-8.24,8.25,8.25,0,0,0-8.3-8.29A8.28,8.28,0,0,0,208.53,47a8,8,0,0,0-2.42,5.88V67.29h-6.93V26.86h6.93V40.7A15.34,15.34,0,0,1,210,38.5,13.66,13.66,0,0,1,215,37.66Z" transform="translate(0 -21.75)"/><path class="cls-3" d="M121.82,36.36l-.59-.52,2.41-3.41.69.47Z" transform="translate(0 -21.75)"/><path class="cls-3" d="M105.94,57.82l-.59-.53,2.41-3.4.68.46Z" transform="translate(0 -21.75)"/><path class="cls-3" d="M114,46.77l-.59-.53,2.41-3.41.65.44Z" transform="translate(0 -21.75)"/><path class="cls-3" d="M129.8,25.56l-.58-.47,2.41-3.28.9-.06Z" transform="translate(0 -21.75)"/><path class="cls-3" d="M97.76,67.94v1.18l2.88-4-.59-.4" transform="translate(0 -21.75)"/><path class="cls-2" d="M320.1,38.34V67.23h-6.93V52.8a8.25,8.25,0,0,0-8.3-8.29,7.92,7.92,0,0,0-3.19.65A8.33,8.33,0,0,0,299,47a8.28,8.28,0,0,0,0,11.7,7.45,7.45,0,0,0,2.69,1.83,8.63,8.63,0,0,0,3.19.62,7.9,7.9,0,0,0,3.13-.59l2.47,6.16A13.43,13.43,0,0,1,304.31,68a14.72,14.72,0,0,1-5.85-1.17,13.85,13.85,0,0,1-4.64-3.25,16,16,0,0,1-3.07-4.83,15.72,15.72,0,0,1-1.08-5.89,16.52,16.52,0,0,1,1.08-5.94,14.55,14.55,0,0,1,3.07-4.83,13.71,13.71,0,0,1,4.64-3.25,14.73,14.73,0,0,1,5.85-1.18,13.31,13.31,0,0,1,5,.87,15.34,15.34,0,0,1,3.87,2.2V38.44h6.9Z" transform="translate(0 -21.75)"/><path class="cls-2" d="M234.22,67.23V60.29h6.94v6.94Z" transform="translate(0 -21.75)"/><path class="cls-2" d="M277.25,37.6a9.24,9.24,0,0,1,4.25.93,8.29,8.29,0,0,1,3,2.54,11.91,11.91,0,0,1,1.73,3.74,18.43,18.43,0,0,1,.59,4.62V67.26h-6.93V49.43A4.79,4.79,0,0,0,278.4,46a4.87,4.87,0,0,0-6.93,0A4.74,4.74,0,0,0,270,49.43V67.26h-6.87V49.43A4.79,4.79,0,0,0,261.68,46a4,4,0,0,0-1.58-1.08,5.23,5.23,0,0,0-1.88-.34,5,5,0,0,0-5,4.92V67.29H246.3V38.41h6.93V41a17.43,17.43,0,0,1,3.53-2.39,8,8,0,0,1,3.75-1,7.84,7.84,0,0,1,4.27,1,10.86,10.86,0,0,1,3,2.88,13.31,13.31,0,0,1,9.47-3.93Z" transform="translate(0 -21.75)"/></svg>