<?xml version="1.0" encoding="utf-8"?>
<!-- Generator: Adobe Illustrator 25.2.0, SVG Export Plug-In . SVG Version: 6.00 Build 0)  -->
<svg version="1.1" id="Layer_1" xmlns="http://www.w3.org/2000/svg" xmlns:xlink="http://www.w3.org/1999/xlink" x="0px" y="0px"
	 viewBox="0 0 93.2 37.2" style="enable-background:new 0 0 93.2 37.2;" xml:space="preserve">
<style type="text/css">
	.st0{clip-path:url(#SVGID_2_);}
	.st1{fill-rule:evenodd;clip-rule:evenodd;fill:#FFFFFF;}
</style>
<g id="g10">
	<g id="g74">
		<g>
			<defs>
				<rect id="SVGID_1_" x="1.9" y="-0.1" width="89.4" height="37.2"/>
			</defs>
			<clipPath id="SVGID_2_">
				<use xlink:href="#SVGID_1_"  style="overflow:visible;"/>
			</clipPath>
			<g class="st0">
				<g id="g76">
					<g id="g82">
						<path id="path84" class="st1" d="M45.3,23.7c1.7-0.1,3.2,1.3,3.3,3.1V27c0.1,2.2-1.6,4.1-3.8,4.2l0,0c-1.7,0.1-3.2-1.2-3.3-3
							c0,0,0,0,0,0c0-0.1,0-0.3,0-0.4c-0.1-2.2,1.6-4,3.7-4.1L45.3,23.7 M44.5,34.6c2.3,0.1,4.5-0.9,6-2.6c1.2-1.5,1.9-3.3,1.9-5.2
							c0-3.7-2.7-6.3-6.8-6.3c-4.2-0.1-7.7,3.2-7.9,7.4c0,0.2,0,0.3,0,0.5c0,1.8,0.7,3.5,2.1,4.7C41.1,34.1,42.8,34.7,44.5,34.6"/>
					</g>
					<g id="g86">
						<path id="path88" class="st1" d="M55.7,20.7h4.1l2.8,6.7c0.3,0.7,0.6,1.5,0.8,2.2v-0.3c0-0.6,0.1-1.2,0.2-1.9l1-6.6h3.6
							l-2.1,13.5h-4l-3-6.9c-0.3-0.7-0.6-1.5-0.8-2.2v0.4c0,0.6-0.1,1.2-0.2,1.9l-1,6.9h-3.6L55.7,20.7z"/>
					</g>
					<g id="g90">
						<path id="path92" class="st1" d="M80.5,25.1c-1-0.9-2.3-1.4-3.6-1.4c-2.1,0-3.9,1.7-3.9,3.9c0,0,0,0,0,0c0,0.1,0,0.2,0,0.3
							c-0.2,1.7,1.1,3.3,2.8,3.4c0.2,0,0.5,0,0.7,0c1.1,0,2.1-0.3,3.1-0.7l-0.6,3.5c-1.1,0.3-2.2,0.5-3.3,0.5
							c-3.9,0-6.4-2.6-6.4-6.5c0-1.8,0.6-3.6,1.8-5.1c1.5-1.7,3.7-2.6,5.9-2.6c1.4,0,2.8,0.3,4,0.9L80.5,25.1z"/>
					</g>
					<g id="g94">
						<path id="path96" class="st1" d="M83.4,20.7h7.8l-0.5,3.1h-4.2L86.2,26h3.9l-0.5,2.9h-3.9l-0.8,5.3h-3.6L83.4,20.7z"/>
					</g>
					<g id="g98">
						<path id="path100" class="st1" d="M20.5,21.8l-0.7,0.3c4.2-2,8-4.6,11.4-7.9l0.7-0.8c1.5-1.5,3.4-3.5,4.8-5.2
							c0.4-0.5,0.9-0.9,1.5-1.3c0.2-0.2,0.5-0.3,0.3-0.1c-0.4,0.5-0.8,1-1.1,1.6c0.1-0.1,0.3-0.3,0.4-0.4c0.1,0.1,0.8-0.4,0.9-0.7
							c0.2-0.2,1.3-1.4,1.5-1.6c0.6-0.7-0.6,1.7-1.2,2.6c-0.3,0.5,0.1,0.1,0.2,0.1c-0.4,0.4-0.5,0.7-0.9,1.1c0,0-1.1,1.3-1.6,2
							c0,0-0.2,0.2-0.8,0.8c-0.2,0.2-0.2,0.2-0.2,0.2h0c-0.2,0.2-0.6,0.6-0.8,0.8v0c-0.4,0.4-0.8,0.8-1.2,1.2l0,0
							c-0.1,0.1-0.3,0.3-0.4,0.4l0,0c-0.2,0.2-0.6,0.5-0.6,0.6l0,0c-0.8,0.8-1.5,1.3-2.1,1.9c-1.9,1.7-4,3.2-6.3,4.4
							c-0.3,0.1-0.5,0.2-0.3,0l-0.8,0.4c-0.5,0.3-0.3,0.1-0.8,0.3c-4.1,2.1-8.5,3.4-13.1,3.7c1.1-0.1,2-0.2,3.1-0.4
							c0,0,0-0.1,0.3-0.1c1.5-0.2,3-0.6,4.4-1.2c0.3-0.1,0.5-0.3,1.3-0.6l-0.8,0.3v-0.1c1.1-0.4,2.4-0.9,3.4-1.5v-0.1l0.5-0.2
							c0.4-0.4-2.3,0.9-3.7,1.3v-0.1l0.5-0.2l0,0c-1.5,0.6-3,1-4.5,1.3c0.3-0.1,0.8-0.2,1.1-0.3c0,0,0-0.1,0.3-0.1
							c-1.2,0.3-2.3,0.5-3.5,0.6c-0.3,0,0-0.1,0.8-0.3s1.3-0.2,2.2-0.4v0c-0.5,0.1-1.3,0.3-1.9,0.4c-0.3,0,0.5-0.2,0.3-0.2
							c-0.3,0.1-0.5,0.1-0.8,0.1c0.9-0.1,1.8-0.3,2.7-0.5c0.3-0.1,0.5-0.2,0.5-0.2c1.1-0.3,2.1-0.7,3.1-1.2c0.2-0.1,1.5-0.6,2.2-1"
							/>
					</g>
					<g id="g102">
						<path id="path104" class="st1" d="M21.7,25.5c-0.4,0.2-0.8,0.4-1.1,0.5C27,23,33,19,38.2,14.2c0.3-0.3,0.9-0.9,1.2-1.2
							c2.6-2.5,5.1-5.1,7.4-7.9C47.9,3.8,48.8,3,48.8,3c0.3-0.3,0.6-0.6,0.4-0.2c-0.4,0.7-1.6,2.4-1.6,2.5C47.8,5,48,4.8,48.2,4.5
							c0.1,0.1,1-0.8,1.2-1.2s1.9-2.4,1.4-3.1c-0.1-0.3-0.1-0.3,0-0.1C51.1,0.5,51.1,1,51,1.4c-0.3,1.1-0.8,2.1-1.4,3.1
							c-0.5,0.7,0.1,0.1,0.2,0.1c-0.5,0.7-0.7,1.1-1.3,1.8c0,0-1.6,2.1-2.5,3l-1.2,1.2c-0.3,0.3-0.3,0.3-0.3,0.3l0,0
							c-0.3,0.3-0.9,0.9-1.2,1.2l0,0c-0.7,0.6-1.2,1.2-1.9,1.8l0,0c-0.2,0.2-0.4,0.4-0.6,0.6l0,0c-0.3,0.3-0.9,0.8-0.9,0.9v0
							c-1.3,1.1-2.3,2-3.3,2.8c-2.9,2.5-6.1,4.8-9.5,6.7c-0.4,0.2-0.8,0.4-0.4,0.1l-1.1,0.6c-0.8,0.4-0.4,0.1-1.2,0.5
							c-6.3,2.9-12.8,5.3-19.9,5.6c1.6-0.1,3.2-0.3,4.8-0.6c0,0,0-0.1,0.4-0.2c2.3-0.4,4.5-1.1,6.6-1.9c0.4-0.2,0.8-0.4,2-0.8
							l-1.2,0.4v-0.1c1.6-0.6,3.6-1.4,5.1-2.1v-0.1l0.8-0.4c0.7-0.5-3.5,1.5-5.6,2.1v-0.1l0.8-0.3v-0.1c-2.3,0.8-4.6,1.6-7,2.1
							c0.4-0.1,1.2-0.3,1.6-0.4l0.4-0.2c-1.8,0.5-3.6,0.9-5.4,1.2c-0.4,0,0-0.1,1.2-0.3s2.1-0.4,3.3-0.8l0,0c-0.8,0.2-2,0.5-2.9,0.7
							c-0.4,0.1,0.8-0.3,0.4-0.2C9.5,30,9.1,30,8.7,30.1c1.4-0.2,2.7-0.5,4.1-0.9c0.4-0.1,0.8-0.3,0.8-0.3c1.6-0.5,3.2-1.1,4.7-1.8
							C18.7,26.8,20.6,26.1,21.7,25.5"/>
					</g>
					<g id="g106">
						<path id="path108" class="st1" d="M19.2,16.8L18.9,17c2-1.1,3.9-2.5,5.7-4l0.4-0.4c0.8-0.7,1.6-1.5,2.4-2.3
							c0.2-0.2,0.4-0.4,0.7-0.5c0.1-0.1,0.2-0.1,0.2,0s-0.4,0.7-0.3,0.8c0.1,0.1,0.1-0.1,0.2-0.2c0.1,0.1,0.5-0.2,0.5-0.3
							c0.2-0.3,0.4-0.7,0.5-1c0.1-0.6,0.6,1.1,0.1,1.7c-0.1,0.3,0.1,0.1,0.2,0.1c-0.1,0.2-0.3,0.5-0.4,0.7c-0.2,0.4-0.5,0.8-0.8,1.1
							c0,0-0.1,0.1-0.4,0.4c-0.1,0.1-0.1,0.1-0.1,0.1l0,0c-0.1,0.1-0.3,0.3-0.4,0.4l0,0c-0.3,0.2-0.4,0.4-0.7,0.5l0,0
							c-0.1,0.1-0.2,0.2-0.2,0.2l0,0c-0.1,0.1-0.4,0.3-0.3,0.3l0,0c-0.4,0.4-0.8,0.6-1.1,0.9c-1,0.8-2.1,1.5-3.2,2.1
							c-0.1,0.1-0.3,0.1-0.2,0L21,17.8c-0.3,0.1-0.2,0-0.4,0.1c-2.1,0.9-3.9,2.2-6.6,2.5c0.6-0.1,1.1-0.2,1.7-0.4c0,0,0-0.1,0.1-0.1
							c0.7-0.2,1.4-0.5,2.1-0.9c0.2-0.2,0.5-0.3,0.7-0.3l-0.4,0.2v-0.1c0.5-0.3,1.1-0.6,1.6-0.9v-0.1l0.2-0.1
							c0.2-0.3-1.2,0.5-1.9,0.7v-0.1l0.3-0.1l0,0c-0.7,0.3-1.4,0.7-2.2,0.9l0.5-0.2c0,0,0,0,0.1-0.1c-0.5,0.3-1.1,0.4-1.7,0.6
							c-0.1,0,0-0.1,0.4-0.2c0.3-0.1,0.7-0.2,1-0.4v0c-0.3,0.1-0.6,0.2-0.9,0.3c-0.1,0,0.2-0.2,0.1-0.1c-0.1,0-0.3,0.1-0.4,0.1
							c0.4-0.1,0.9-0.3,1.3-0.5c0.1-0.1,0.2-0.1,0.2-0.2c0.5-0.2,1-0.5,1.4-0.8c0.3-0.2,0.7-0.4,1.1-0.6"/>
					</g>
				</g>
			</g>
		</g>
	</g>
</g>
</svg>
