<svg id="Layer_1" data-name="Layer 1" xmlns="http://www.w3.org/2000/svg" xmlns:xlink="http://www.w3.org/1999/xlink" viewBox="0 0 99.59 33.43"><defs><style>.cls-1{fill:none;}.cls-2{clip-path:url(#clip-path);}.cls-3{fill:#273c7d;}.cls-4{fill:#4e9ed8;}.cls-5{clip-path:url(#clip-path-4);}.cls-6{fill:#1b3e77;fill-rule:evenodd;}.cls-7{fill:#fff;}.cls-8{fill:#3db6e9;}</style><clipPath id="clip-path" transform="translate(-0.03 -4.52)"><rect class="cls-1" x="35.21" y="15.76" width="64.42" height="10.93"/></clipPath><clipPath id="clip-path-4" transform="translate(-0.03 -4.52)"><rect class="cls-1" x="35.21" y="15.98" width="64.41" height="10.7"/></clipPath></defs><g class="cls-2"><g class="cls-2"><path class="cls-3" d="M60.48,17a1,1,0,1,1,1,1,1,1,0,0,1-1-1" transform="translate(-0.03 -4.52)"/><path class="cls-4" d="M75.92,23.49a1,1,0,1,1,1,1,1,1,0,0,1-1-1" transform="translate(-0.03 -4.52)"/><path class="cls-3" d="M44.41,23.06A1.47,1.47,0,0,1,43,21.44a1.45,1.45,0,1,1,2.87,0,1.46,1.46,0,0,1-1.44,1.62Zm0-4.68a3.06,3.06,0,1,0,3.09,3.06,3,3,0,0,0-3.09-3.06m14.17,3.21a1.74,1.74,0,0,0-.23-.33l-.06-.06.06-.05a2.81,2.81,0,0,0,.25-.31l1.57-2.34H58.26l-1.18,1.83a.48.48,0,0,1-.41.15H56.4V17c0-.69-.43-.79-.89-.79h-.8V24.4H56.4V22h.16c.19,0,.33,0,.39.13l.93,1.76a.94.94,0,0,0,1,.56h1.3l-1-1.6-.64-1.21m8.22-3.22a2.32,2.32,0,0,0-1.72.7l-.1.11,0-.14a.77.77,0,0,0-.85-.54h-.76v5.9H65V21.68a2.21,2.21,0,0,1,.1-.71,1.39,1.39,0,0,1,1.36-1c.53,0,.73.28.73,1V23.5a.79.79,0,0,0,.9.9h.8V20.65c0-1.49-.72-2.28-2.1-2.28m-5.32.13h-.8v4.56h0V24.4h1.68v-5a.78.78,0,0,0-.88-.9M51,23.06a1.46,1.46,0,0,1-1.43-1.62,1.45,1.45,0,1,1,2.87,0A1.46,1.46,0,0,1,51,23.06Zm0-4.68a3.06,3.06,0,1,0,3.09,3.06A3,3,0,0,0,51,18.38" transform="translate(-0.03 -4.52)"/></g></g><g class="cls-2"><g class="cls-5"><g class="cls-2"><path class="cls-4" d="M87.06,23.06a1.47,1.47,0,0,1-1.43-1.62,1.45,1.45,0,1,1,2.87,0,1.46,1.46,0,0,1-1.44,1.62Zm0-4.68a3.06,3.06,0,1,0,3.09,3.06,3,3,0,0,0-3.09-3.06" transform="translate(-0.03 -4.52)"/><path class="cls-3" d="M72.45,22.8c-.92,0-1.25-.8-1.25-1.55,0-.33.09-1.41,1.16-1.41.54,0,1.25.15,1.25,1.47S73,22.8,72.45,22.8Zm2-4.31a.73.73,0,0,0-.69.36l0,.09-.08-.07a2.27,2.27,0,0,0-1.55-.51,2.65,2.65,0,0,0-2.63,2.93,2.71,2.71,0,0,0,2.66,3,2.11,2.11,0,0,0,1.3-.38l.13-.1V24c0,.79-.51,1.23-1.44,1.23A3.35,3.35,0,0,1,71,25a.5.5,0,0,0-.71.34l-.13.33-.19.48.12.06a4.5,4.5,0,0,0,2.05.5c1.43,0,3.11-.73,3.11-2.79V18.49h-.78" transform="translate(-0.03 -4.52)"/></g></g></g><g class="cls-2"><g class="cls-2"><path class="cls-3" d="M38.15,23H36.78V21.36c0-.35.13-.53.43-.58h.94a1.11,1.11,0,0,1,0,2.22Zm-1.37-4.42v-.43c0-.38.16-.56.51-.58H38a.88.88,0,0,1,1,1,.92.92,0,0,1-.94,1H36.78Zm3.12,1.63-.25-.14.21-.18a2,2,0,0,0,.68-1.54c0-1.28-1-2.11-2.54-2.11H36a.85.85,0,0,0-.83.84v7.29H38c1.72,0,2.82-.93,2.82-2.38a2,2,0,0,0-1-1.78" transform="translate(-0.03 -4.52)"/><path class="cls-4" d="M97.66,18.39a2.3,2.3,0,0,0-1.8.87l-.12.16-.1-.18a1.68,1.68,0,0,0-1.59-.85,2.13,2.13,0,0,0-1.55.69l-.16.18L92.28,19a.75.75,0,0,0-.82-.51h-.71V24.4h1.61V21.8a2.71,2.71,0,0,1,.09-.68c.15-.63.57-1.3,1.28-1.24.44.05.65.38.65,1V24.4H96V21.8a2.23,2.23,0,0,1,.09-.71,1.4,1.4,0,0,1,1.25-1.21c.49,0,.68.28.68,1v2.63c0,.59.26.86.85.86h.76V20.65c0-1.5-.66-2.26-2-2.26m-14.61,4a2.48,2.48,0,0,1-1.6.73,1.66,1.66,0,0,1-.09-3.31c.3,0,.64.11.7.29v0a.58.58,0,0,0,.57.44h.88v-.77c0-1-1.29-1.38-2.16-1.38a3.07,3.07,0,1,0,0,6.14,3.3,3.3,0,0,0,2.47-1.06l0,0-.7-1.16-.09.1" transform="translate(-0.03 -4.52)"/></g></g><path class="cls-6" d="M34.21,10.93a6.41,6.41,0,0,0-6.42-6.41H6.45A6.42,6.42,0,0,0,0,10.93V31.52a6.43,6.43,0,0,0,6.42,6.42H27.79a6.42,6.42,0,0,0,6.42-6.42Z" transform="translate(-0.03 -4.52)"/><path class="cls-6" d="M0,14.9H17.11V27.56H0Z" transform="translate(-0.03 -4.52)"/><path class="cls-7" d="M15.57,26.64H12.81V23.35c0-.71.28-1.07.88-1.16h1.88a2.06,2.06,0,0,1,2.2,2.21,2,2,0,0,1-2.2,2.24Zm-2.76-8.88V16.9c0-.76.33-1.12,1-1.17h1.41a1.77,1.77,0,0,1,1.93,1.93,1.84,1.84,0,0,1-1.89,2H12.81Zm6.27,3.29-.49-.28L19,20.4a4,4,0,0,0,1.35-3.1c0-2.59-2-4.25-5.1-4.25H11.33a1.72,1.72,0,0,0-1.66,1.7V29.41h5.67c3.45,0,5.67-1.88,5.67-4.78a4,4,0,0,0-1.93-3.58" transform="translate(-0.03 -4.52)"/><path class="cls-8" d="M22.49,27.38a2,2,0,1,1,2,2,2,2,0,0,1-2-2" transform="translate(-0.03 -4.52)"/></svg>