<svg xmlns="http://www.w3.org/2000/svg" xmlns:xlink="http://www.w3.org/1999/xlink" viewBox="0 0 99.63 33.42"><defs><style>.cls-1{fill:none;}.cls-2{clip-path:url(#clip-path);}.cls-3{fill:#fff;}.cls-4{clip-path:url(#clip-path-4);}.cls-5,.cls-7{fill:#fcfcfc;}.cls-5{fill-rule:evenodd;}.cls-6{fill:#222323;}</style><clipPath id="clip-path" transform="translate(0.03 0)"><rect class="cls-1" x="35.18" y="11.24" width="64.42" height="10.93"/></clipPath><clipPath id="clip-path-4" transform="translate(0.03 0)"><rect class="cls-1" x="35.18" y="11.46" width="64.41" height="10.7"/></clipPath></defs><g id="Layer_1" data-name="Layer 1"><g class="cls-2"><g class="cls-2"><path class="cls-3" d="M60.45,12.48a1,1,0,1,1,1,1,1,1,0,0,1-1-1" transform="translate(0.03 0)"/><path class="cls-3" d="M75.89,19a1,1,0,1,1,1,1,1,1,0,0,1-1-1" transform="translate(0.03 0)"/><path class="cls-3" d="M44.38,18.54A1.47,1.47,0,0,1,43,17s0-.07,0-.1a1.45,1.45,0,0,1,2.87-.42,1.48,1.48,0,0,1,0,.42,1.46,1.46,0,0,1-1.29,1.61h-.17Zm0-4.68a3.06,3.06,0,1,0,3.09,3.06,3,3,0,0,0-2.94-3.06h-.15m14.17,3.21a1.5,1.5,0,0,0-.23-.33l-.06-.06.06-.05a3.76,3.76,0,0,0,.25-.31L60.14,14H58.23l-1.18,1.83a.48.48,0,0,1-.41.15h-.27V12.48c0-.69-.43-.79-.89-.79h-.8v8.19h1.69v-2.4h.16c.19,0,.33,0,.39.13l.93,1.76a1,1,0,0,0,1,.56h1.3l-1-1.6-.64-1.21m8.22-3.22a2.31,2.31,0,0,0-1.72.7l-.1.11v-.14a.76.76,0,0,0-.85-.54H63.3v5.9H65V17.16a2.14,2.14,0,0,1,.1-.71,1.4,1.4,0,0,1,1.36-1c.53,0,.73.28.73,1V19a.79.79,0,0,0,.66.9,1,1,0,0,0,.24,0h.8V16.13c0-1.49-.72-2.28-2.1-2.28M61.44,14h-.8v4.56h0v1.34h1.68v-5a.79.79,0,0,0-.64-.9h-.24M51,18.54a1.46,1.46,0,0,1-1.44-1.48.66.66,0,0,1,0-.14,1.45,1.45,0,0,1,2.87-.42,1.48,1.48,0,0,1,0,.42,1.46,1.46,0,0,1-1.29,1.61Zm0-4.68a3.06,3.06,0,1,0,3.09,3.06,3,3,0,0,0-2.94-3.06H51" transform="translate(0.03 0)"/></g></g><g class="cls-2"><g class="cls-4"><g class="cls-2"><path class="cls-3" d="M87,18.54A1.47,1.47,0,0,1,85.59,17s0-.08,0-.12a1.45,1.45,0,0,1,2.87-.42,1.48,1.48,0,0,1,0,.42,1.46,1.46,0,0,1-1.29,1.61Zm0-4.68a3.06,3.06,0,1,0,3.09,3.06,3,3,0,0,0-2.94-3.06H87" transform="translate(0.03 0)"/><path class="cls-3" d="M72.42,18.28c-.92,0-1.25-.8-1.25-1.55,0-.33.09-1.41,1.16-1.41.54,0,1.25.15,1.25,1.47S73,18.28,72.42,18.28Zm2-4.31a.74.74,0,0,0-.69.36v.09l-.08-.07a2.25,2.25,0,0,0-1.55-.51,2.64,2.64,0,0,0-2.64,2.66,2.44,2.44,0,0,0,0,.27,2.71,2.71,0,0,0,2.4,3l.26,0a2.09,2.09,0,0,0,1.3-.38l.13-.1v.19c0,.79-.51,1.23-1.44,1.23A3.51,3.51,0,0,1,71,20.48a.5.5,0,0,0-.67.23.36.36,0,0,0,0,.11l-.13.33-.19.48.12.06a4.43,4.43,0,0,0,2,.5c1.43,0,3.11-.73,3.11-2.79V14h-.78" transform="translate(0.03 0)"/></g></g></g><g class="cls-2"><g class="cls-2"><path class="cls-3" d="M38.12,18.48H36.75V16.84c0-.35.13-.53.43-.58h.94a1.11,1.11,0,0,1,0,2.22Zm-1.37-4.42v-.43c0-.38.16-.56.51-.58H38a.88.88,0,0,1,1,.74,1.13,1.13,0,0,1,0,.26.93.93,0,0,1-.84,1H36.75Zm3.12,1.63-.25-.14.21-.18a2,2,0,0,0,.68-1.54c0-1.28-1-2.11-2.54-2.11H36a.85.85,0,0,0-.83.84v7.29H38c1.72,0,2.82-.93,2.82-2.38a2,2,0,0,0-1-1.78" transform="translate(0.03 0)"/><path class="cls-3" d="M97.63,13.87a2.3,2.3,0,0,0-1.8.87l-.12.16-.1-.18A1.67,1.67,0,0,0,94,13.87a2.17,2.17,0,0,0-1.55.69l-.16.18-.06-.26a.75.75,0,0,0-.82-.51h-.71v5.91h1.61v-2.6a2.59,2.59,0,0,1,.09-.68c.15-.63.57-1.3,1.28-1.24.44.05.65.38.65,1v3.52H96v-2.6a2.13,2.13,0,0,1,.09-.71,1.4,1.4,0,0,1,1.25-1.21c.49,0,.68.28.68,1V19c0,.59.26.86.85.86h.76V16.13c0-1.5-.66-2.26-2-2.26M83,17.87a2.5,2.5,0,0,1-1.6.73,1.66,1.66,0,0,1-.09-3.31c.3,0,.64.11.7.29h0a.58.58,0,0,0,.57.44h.88v-.77c0-1-1.29-1.38-2.16-1.38a3.07,3.07,0,0,0,0,6.14h0A3.3,3.3,0,0,0,83.76,19h0l-.7-1.16-.09.1" transform="translate(0.03 0)"/></g></g><path class="cls-5" d="M34.18,6.41A6.41,6.41,0,0,0,27.77,0H6.42A6.41,6.41,0,0,0,0,6.39V27a6.44,6.44,0,0,0,6.42,6.42H27.76A6.41,6.41,0,0,0,34.18,27Z" transform="translate(0.03 0)"/><path class="cls-5" d="M0,10.38H17.08V23H0Z" transform="translate(0.03 0)"/><path class="cls-6" d="M15.54,22.12H12.78V18.83c0-.71.28-1.07.88-1.16h1.88a2.06,2.06,0,0,1,2.2,1.91,1.5,1.5,0,0,1,0,.3A2,2,0,0,1,16,22.12,1.85,1.85,0,0,1,15.54,22.12Zm-2.76-8.88v-.86c0-.76.33-1.12,1-1.17h1.41a1.77,1.77,0,0,1,1.93,1.59,1.93,1.93,0,0,1,0,.34,1.84,1.84,0,0,1-1.67,2H12.78Zm6.27,3.29-.49-.28.41-.37a4,4,0,0,0,1.35-3.1c0-2.59-2-4.25-5.1-4.25H11.3a1.72,1.72,0,0,0-1.66,1.7V24.89h5.67C18.76,24.89,21,23,21,20.11a4,4,0,0,0-1.93-3.58" transform="translate(0.03 0)"/><path class="cls-7" d="M22.46,22.86a2,2,0,1,1,2,2,2,2,0,0,1-2-2" transform="translate(0.03 0)"/></g></svg>