<svg id="Layer_1" data-name="Layer 1" xmlns="http://www.w3.org/2000/svg" viewBox="0 0 100.11 25.27"><defs><style>.cls-1{fill:#4380c2;}.cls-2{fill:#d62b30;}.cls-3{fill:#fff;}.cls-4{fill:#2a3f91;}</style></defs><path class="cls-1" d="M69.16,10.31l-.48,0s-10.1.8-14,1.46S40.13,14.2,37.09,14.5s-12.78,1.22-19.84-.06a53.16,53.16,0,0,1-6.18-1.55A25.61,25.61,0,0,1,2.32,15,19.14,19.14,0,0,1,0,15a24.71,24.71,0,0,0,2.86,1.68c1,.5,2.49,1.17,4.3,1.85a42.93,42.93,0,0,0,13,2.69c8.11.37,20.73-1.73,25.92-2.87,3.39-.75,9.61,7.54,16,8.74a6.21,6.21,0,0,1,4.16,3.39c4.52-4.08,14.72-12,28.11-14.82a47.66,47.66,0,0,0-25.15-5.34" transform="translate(0 -7.42)"/><path class="cls-1" d="M45.92,32.61l-9.87,0,2.54-6.17H36.9L34.24,32.6H32.52l-15.61,0a6.41,6.41,0,0,1-4.49-1.92,6.6,6.6,0,0,1-2-4.68,6.86,6.86,0,0,1,.39-2.21,10.53,10.53,0,0,1,5.37-6.08,10.22,10.22,0,0,1,3.68-1H20l49.93.12v1.46l.59-.62.77-.83,9.71,0,0,15.9H70.64V30.46L68,32.67l-8,0V30.82l-2,1.83" transform="translate(0 -7.42)"/><path class="cls-2" d="M100,14.67h0s-10.52-8.38-29-7.12l-.47.06s-10.09,1-14,1.75S42,12.05,39,12.42s-12.76,1.49-19.84.36a49.73,49.73,0,0,1-5.43-1.17l-1.34.66c1.42.4,3.06.8,4.92,1.14,7.06,1.28,16.8.36,19.84.06s13.63-2,17.56-2.7,14-1.45,14-1.45l.47-.05c13.35-.62,22.45,3.67,26.49,6.11,1.45-.26,2.94-.46,4.45-.58l-.16-.13" transform="translate(0 -7.42)"/><path class="cls-3" d="M71.63,17.68l-.51.54L69,20.54V17.67l-49-.12h0a9.41,9.41,0,0,0-3.33.93,9.62,9.62,0,0,0-4.9,5.57,5.8,5.8,0,0,0-.33,1.9,5.67,5.67,0,0,0,1.69,4,5.54,5.54,0,0,0,3.85,1.66l15.62,0h1.11L36.3,25.5H40l-2.54,6.17,9.93,0,2.4-6.18H53.8L48,31.73h9.64l3.26-3v3h6.78l3.89-3.25v3.27H80L80,17.7" transform="translate(0 -7.42)"/><polyline class="cls-3" points="51.8 18.93 50.47 18.93 49.51 21.37"/><path class="cls-4" d="M20,19.24a7.91,7.91,0,0,0-6.71,5.38A4,4,0,0,0,16.91,30l15.62,0,1.95-4.52-14.32,0s-1.41.1-.95-.86a1.25,1.25,0,0,1,1.31-.79l14.69,0,1.95-4.53" transform="translate(0 -7.42)"/><path class="cls-4" d="M39,19.29l-2,4.52,5.43,0L39.93,30h6.25l2.41-6.18,6.76,0,4.26-4.51" transform="translate(0 -7.42)"/><polyline class="cls-4" points="72.36 11.95 67.25 17.41 67.27 11.93 61.91 11.92 57.68 16.43 57.7 16.43 51.89 22.62 56.97 22.62 62.59 17.46 62.58 22.63 67.06 22.64 73.26 17.46 73.25 22.66 78.29 22.66 78.33 11.97"/></svg>