<svg id="Layer_1" data-name="Layer 1" xmlns="http://www.w3.org/2000/svg" xmlns:xlink="http://www.w3.org/1999/xlink" viewBox="0 0 93.25 37.11"><defs><style>.cls-1{fill:none;}.cls-2{clip-path:url(#clip-path);}.cls-3{fill:#ee721e;fill-rule:evenodd;}</style><clipPath id="clip-path" transform="translate(-4.75 -0.06)"><rect class="cls-1" x="1.97" width="96.05" height="40"/></clipPath></defs><g id="g10"><g id="g74"><g class="cls-2"><g id="g76"><g id="g82"><path id="path84" class="cls-3" d="M48.67,25.51a3.41,3.41,0,0,1,3.51,3.57A4.34,4.34,0,0,1,48,33.62,3.36,3.36,0,0,1,44.49,30a4.24,4.24,0,0,1,4.18-4.44m-.89,11.67a8.19,8.19,0,0,0,6.43-2.84,8.4,8.4,0,0,0,2-5.6c0-4-2.9-6.78-7.31-6.78a8.29,8.29,0,0,0-6.45,2.82,8.4,8.4,0,0,0-2,5.6,6.72,6.72,0,0,0,2.21,5.09,7.51,7.51,0,0,0,5.1,1.71" transform="translate(-4.75 -0.06)"/></g><g id="g86"><path id="path88" class="cls-3" d="M59.77,22.28H64.2l3.06,7.16a12.57,12.57,0,0,1,.83,2.38v-.37a14.89,14.89,0,0,1,.19-2l1.12-7.13h3.87L71,36.8H66.72l-3.25-7.39A12.43,12.43,0,0,1,62.62,27v.4a14.07,14.07,0,0,1-.17,2L61.36,36.8H57.48Z" transform="translate(-4.75 -0.06)"/></g><g id="g90"><path id="path92" class="cls-3" d="M86.49,27a5.85,5.85,0,0,0-3.86-1.46A4.15,4.15,0,0,0,78.49,30a3.38,3.38,0,0,0,3.75,3.7,8.55,8.55,0,0,0,3.31-.75l-.61,3.75a11.71,11.71,0,0,1-3.57.49c-4.18,0-6.84-2.82-6.84-7a8.6,8.6,0,0,1,1.89-5.46,7.93,7.93,0,0,1,6.37-2.74,9.41,9.41,0,0,1,4.35,1Z" transform="translate(-4.75 -0.06)"/></g><g id="g94"><path id="path96" class="cls-3" d="M89.61,22.28H98l-.53,3.33H93L92.57,28H96.8l-.51,3.12h-4.2L91.2,36.8H87.32Z" transform="translate(-4.75 -0.06)"/></g><g id="g98"><path id="path100" class="cls-3" d="M22,23.46l-.8.36a45.26,45.26,0,0,0,12.23-8.45l.79-.88c1.65-1.66,3.68-3.77,5.21-5.54A7.74,7.74,0,0,1,41,7.57c.22-.2.49-.37.36-.1a13.93,13.93,0,0,0-1.18,1.71s.22-.21.4-.44c.09.08.83-.48,1-.71S43,6.49,43.21,6.26c.6-.7-.6,1.8-1.31,2.79-.33.51.12.09.18.14-.4.46-.52.75-.93,1.2,0,0-1.13,1.43-1.75,2.1,0,0-.22.2-.84.87-.21.22-.23.2-.26.18l.05,0c-.26.18-.63.66-.87.85l0,.05c-.47.39-.85.86-1.32,1.25l0,0a2.51,2.51,0,0,0-.42.44l0,0c-.2.23-.69.59-.65.64l0,0c-.9.81-1.58,1.43-2.27,2a36.07,36.07,0,0,1-6.77,4.72c-.27.15-.56.26-.32.05l-.81.45c-.54.29-.31.07-.85.35A35.79,35.79,0,0,1,10,28.35c1.23-.12,2.14-.26,3.36-.43,0,0,0-.08.29-.13a23.77,23.77,0,0,0,4.72-1.27c.28-.11.54-.28,1.39-.61l-.85.32,0-.08c1.13-.44,2.53-1,3.61-1.56l0-.08.54-.26c.46-.44-2.5,1-3.95,1.44l0-.11.56-.21,0-.05a31.47,31.47,0,0,1-4.86,1.42c.29-.06.88-.18,1.16-.27,0,0,0-.06.28-.13a21.38,21.38,0,0,1-3.8.71c-.3,0,0-.11.86-.27s1.45-.26,2.32-.46v-.05c-.58.14-1.44.33-2,.42-.29,0,.57-.2.27-.17a6.41,6.41,0,0,1-.88.11,21.74,21.74,0,0,0,2.89-.58c.28-.1.55-.2.54-.26a12.57,12.57,0,0,0,3.27-1.27c.26-.14,1.62-.68,2.41-1.06" transform="translate(-4.75 -0.06)"/></g><g id="g102"><path id="path104" class="cls-3" d="M23.26,27.5c-.41.2-.81.38-1.23.55a73.67,73.67,0,0,0,19-12.72c.32-.32,1-1,1.26-1.29a98.18,98.18,0,0,0,8-8.47c1.13-1.38,2.09-2.31,2.09-2.32.28-.33.62-.65.43-.25-.41.78-1.76,2.59-1.67,2.65a5.45,5.45,0,0,0,.56-.7c.1.07,1.07-.9,1.31-1.29S55,1.07,54.56.33c-.14-.31-.11-.33,0-.16a1.64,1.64,0,0,1,.16,1.44,12.36,12.36,0,0,1-1.51,3.31c-.49.8.12.09.19.13-.56.76-.77,1.18-1.37,1.9,0,0-1.71,2.21-2.66,3.23l-1.28,1.34c-.31.33-.34.31-.36.29l0,0c-.36.29-1,1-1.31,1.3l0,0c-.7.61-1.33,1.29-2,1.91l0,0a5.72,5.72,0,0,0-.66.64l0,0c-.32.34-1.05.91-1,1l0-.05c-1.39,1.23-2.44,2.13-3.5,3A64.5,64.5,0,0,1,29.07,26.8c-.4.24-.84.4-.46.13l-1.22.67c-.82.44-.45.14-1.27.56-6.76,3.08-13.73,5.74-21.37,6a34.86,34.86,0,0,0,5.14-.61s0-.08.44-.17a46.07,46.07,0,0,0,7.11-2c.43-.18.84-.4,2.14-.87l-1.3.46,0-.08c1.73-.63,3.86-1.47,5.53-2.28l0-.08.83-.39c.76-.54-3.81,1.6-6,2.24l0-.11.86-.3,0-.06A68.13,68.13,0,0,1,12,32.2c.44-.11,1.33-.33,1.77-.46,0,0,0,0,.42-.17a39.42,39.42,0,0,1-5.78,1.25c-.46,0,0-.09,1.32-.37s2.22-.47,3.54-.81l0-.05c-.87.23-2.19.57-3.08.72-.46.06.86-.27.41-.21a11.92,11.92,0,0,1-1.33.23,39.39,39.39,0,0,0,4.4-1c.43-.15.86-.3.84-.36a28.14,28.14,0,0,0,5.09-1.9c.4-.21,2.53-1,3.73-1.57" transform="translate(-4.75 -0.06)"/></g><g id="g106"><path id="path108" class="cls-3" d="M20.64,18.16l-.38.21a36.92,36.92,0,0,0,6.1-4.25l.38-.45a30,30,0,0,0,2.53-2.5,1.93,1.93,0,0,1,.74-.53c.11-.08.23-.14.26,0s-.41.8-.33.87.1-.1.17-.22c.1.07.52-.18.58-.32a2.26,2.26,0,0,0,.5-1.12c.11-.61.61,1.15.15,1.82-.13.32.12.08.2.11a5.84,5.84,0,0,1-.46.74,6.44,6.44,0,0,1-.91,1.17s-.13.1-.47.43c-.12.11-.14.09-.16.07l0,0c-.15.07-.34.32-.48.4l0,0c-.27.17-.47.41-.73.59l0,0c-.12.1-.24.19-.22.22l0,0c-.1.12-.38.27-.34.32l0,0c-.48.38-.84.68-1.19,1a20.35,20.35,0,0,1-3.47,2.26c-.14.08-.3.1-.19,0l-.4.23c-.27.15-.18,0-.44.15-2.27,1-4.2,2.38-7.09,2.66a9.69,9.69,0,0,0,1.83-.42s0-.08.13-.13a10.18,10.18,0,0,0,2.26-1A2.82,2.82,0,0,1,20,20.1l-.41.2,0-.08c.53-.29,1.19-.65,1.71-1l0-.07.26-.15c.17-.31-1.26.5-2,.78l0-.1.27-.13,0,0a25.21,25.21,0,0,1-2.33,1l.56-.22s0-.05.11-.11a9.06,9.06,0,0,1-1.82.61c-.15,0,0-.1.38-.26a11.14,11.14,0,0,0,1.1-.4l0-.05a6.48,6.48,0,0,1-1,.35c-.15,0,.25-.17.1-.15a1.84,1.84,0,0,1-.42.1,10.2,10.2,0,0,0,1.37-.49c.12-.08.24-.16.22-.22a4.21,4.21,0,0,0,1.51-.91,11.9,11.9,0,0,1,1.15-.63" transform="translate(-4.75 -0.06)"/></g></g></g></g></g></svg>